<svg width="200" height="200" viewBox="0 0 200 200" fill="none" xmlns="http://www.w3.org/2000/svg">
  <path d="M100 180c44.183 0 80-35.817 80-80s-35.817-80-80-80-80 35.817-80 80 35.817 80 80 80z" fill="#f5f5f5"/>
  <path d="M140 70H60c-5.523 0-10 4.477-10 10v60c0 5.523 4.477 10 10 10h80c5.523 0 10-4.477 10-10V80c0-5.523-4.477-10-10-10z" fill="#e0e0e0"/>
  <path d="M65 90h70v10H65zM65 110h50v10H65z" fill="#bdbdbd"/>
  <circle cx="100" cy="60" r="5" fill="#9e9e9e"/>
  <path d="M95 55h10v30H95z" fill="#9e9e9e"/>
</svg>